<mxfile host="Electron" agent="Mozilla/5.0 (Windows NT 10.0; Win64; x64) AppleWebKit/537.36 (KHTML, like Gecko) draw.io/24.7.8 Chrome/128.0.6613.36 Electron/32.0.1 Safari/537.36" version="24.7.8">
  <diagram name="Strona-1" id="kH04uza3CklRYuzTuj5z">
    <mxGraphModel dx="1345" dy="2348" grid="1" gridSize="10" guides="1" tooltips="1" connect="1" arrows="1" fold="1" page="1" pageScale="1" pageWidth="827" pageHeight="1169" math="0" shadow="0">
      <root>
        <mxCell id="0" />
        <mxCell id="1" parent="0" />
        <mxCell id="4velJJgH7xcaTWiOWq5z-1" value="&lt;font style=&quot;font-size: 14px;&quot;&gt;uc Poszkodowany&lt;/font&gt;" style="shape=umlFrame;whiteSpace=wrap;html=1;pointerEvents=0;recursiveResize=0;container=1;collapsible=0;width=300;height=35;" parent="1" vertex="1">
          <mxGeometry x="40" y="-90" width="830" height="780" as="geometry" />
        </mxCell>
        <mxCell id="4velJJgH7xcaTWiOWq5z-101" value="Poszkodowany&lt;div&gt;&lt;br&gt;&lt;/div&gt;" style="shape=umlActor;verticalLabelPosition=bottom;verticalAlign=top;html=1;outlineConnect=0;perimeterSpacing=8;" parent="1" vertex="1">
          <mxGeometry x="70" y="282" width="30" height="60" as="geometry" />
        </mxCell>
        <mxCell id="4velJJgH7xcaTWiOWq5z-102" value="" style="swimlane;startSize=0;" parent="1" vertex="1">
          <mxGeometry x="180" y="-40" width="580" height="680" as="geometry">
            <mxRectangle x="180" y="54" width="50" height="40" as="alternateBounds" />
          </mxGeometry>
        </mxCell>
        <mxCell id="4velJJgH7xcaTWiOWq5z-103" value="Zgłoś potrzeby" style="ellipse;whiteSpace=wrap;html=1;" parent="4velJJgH7xcaTWiOWq5z-102" vertex="1">
          <mxGeometry x="51" y="230" width="120" height="80" as="geometry" />
        </mxCell>
        <mxCell id="4velJJgH7xcaTWiOWq5z-104" value="Wyświetl zgłoszenie" style="ellipse;whiteSpace=wrap;html=1;" parent="4velJJgH7xcaTWiOWq5z-102" vertex="1">
          <mxGeometry x="51" y="390" width="120" height="80" as="geometry" />
        </mxCell>
        <mxCell id="4velJJgH7xcaTWiOWq5z-106" value="Otrzymaj powiadomienie" style="ellipse;whiteSpace=wrap;html=1;" parent="4velJJgH7xcaTWiOWq5z-102" vertex="1">
          <mxGeometry x="51" y="96" width="120" height="80" as="geometry" />
        </mxCell>
        <mxCell id="4velJJgH7xcaTWiOWq5z-145" value="&lt;span style=&quot;text-align: left;&quot;&gt;Wystaw ocenę wolontariuszowi&lt;/span&gt;" style="ellipse;whiteSpace=wrap;html=1;" parent="4velJJgH7xcaTWiOWq5z-102" vertex="1">
          <mxGeometry x="51" y="565" width="120" height="80" as="geometry" />
        </mxCell>
        <mxCell id="4velJJgH7xcaTWiOWq5z-146" value="&amp;lt;&amp;lt;extend&amp;gt;&amp;gt;" style="endArrow=open;endSize=12;dashed=1;html=1;rounded=0;entryX=0.5;entryY=1;entryDx=0;entryDy=0;exitX=0.5;exitY=0;exitDx=0;exitDy=0;" parent="4velJJgH7xcaTWiOWq5z-102" source="4velJJgH7xcaTWiOWq5z-145" target="4velJJgH7xcaTWiOWq5z-104" edge="1">
          <mxGeometry width="160" relative="1" as="geometry">
            <mxPoint x="110" y="516.0000000000002" as="sourcePoint" />
            <mxPoint x="180" y="260" as="targetPoint" />
          </mxGeometry>
        </mxCell>
        <mxCell id="4velJJgH7xcaTWiOWq5z-148" value="Wprowadź swoją lokalizację" style="ellipse;whiteSpace=wrap;html=1;" parent="4velJJgH7xcaTWiOWq5z-102" vertex="1">
          <mxGeometry x="281" y="230" width="120" height="80" as="geometry" />
        </mxCell>
        <mxCell id="4velJJgH7xcaTWiOWq5z-149" value="&amp;lt;&amp;lt;include&amp;gt;&amp;gt;" style="endArrow=open;endSize=12;dashed=1;html=1;rounded=0;entryX=0;entryY=0.5;entryDx=0;entryDy=0;exitX=1;exitY=0.5;exitDx=0;exitDy=0;" parent="4velJJgH7xcaTWiOWq5z-102" source="4velJJgH7xcaTWiOWq5z-103" target="4velJJgH7xcaTWiOWq5z-148" edge="1">
          <mxGeometry width="160" relative="1" as="geometry">
            <mxPoint x="120" y="130" as="sourcePoint" />
            <mxPoint x="120" y="220" as="targetPoint" />
          </mxGeometry>
        </mxCell>
        <mxCell id="4velJJgH7xcaTWiOWq5z-150" value="&amp;lt;&amp;lt;extend&amp;gt;&amp;gt;" style="endArrow=open;endSize=12;dashed=1;html=1;rounded=0;entryX=0.5;entryY=0;entryDx=0;entryDy=0;exitX=0.5;exitY=1;exitDx=0;exitDy=0;" parent="4velJJgH7xcaTWiOWq5z-102" source="4velJJgH7xcaTWiOWq5z-103" target="4velJJgH7xcaTWiOWq5z-104" edge="1">
          <mxGeometry width="160" relative="1" as="geometry">
            <mxPoint x="120" y="546" as="sourcePoint" />
            <mxPoint x="120" y="476" as="targetPoint" />
          </mxGeometry>
        </mxCell>
        <mxCell id="4velJJgH7xcaTWiOWq5z-171" value="&amp;lt;&amp;lt;include&amp;gt;&amp;gt;" style="endArrow=open;endSize=12;dashed=1;html=1;rounded=0;exitX=1;exitY=0.5;exitDx=0;exitDy=0;entryX=0;entryY=0.5;entryDx=0;entryDy=0;" parent="4velJJgH7xcaTWiOWq5z-102" source="4velJJgH7xcaTWiOWq5z-104" target="4velJJgH7xcaTWiOWq5z-196" edge="1">
          <mxGeometry width="160" relative="1" as="geometry">
            <mxPoint x="196" y="440" as="sourcePoint" />
            <mxPoint x="295.9999999999984" y="438.00000000000045" as="targetPoint" />
          </mxGeometry>
        </mxCell>
        <mxCell id="4velJJgH7xcaTWiOWq5z-173" value="&amp;lt;&amp;lt;extend&amp;gt;&amp;gt;" style="endArrow=open;endSize=12;dashed=1;html=1;rounded=0;exitX=0;exitY=0;exitDx=0;exitDy=0;entryX=0.5;entryY=1;entryDx=0;entryDy=0;" parent="4velJJgH7xcaTWiOWq5z-102" edge="1">
          <mxGeometry width="160" relative="1" as="geometry">
            <mxPoint x="261" y="576" as="sourcePoint" />
            <mxPoint x="234" y="554" as="targetPoint" />
          </mxGeometry>
        </mxCell>
        <mxCell id="4velJJgH7xcaTWiOWq5z-189" value="&lt;b&gt;&lt;font style=&quot;font-size: 18px;&quot;&gt;System koordynacji pomocy humanitarnej&lt;/font&gt;&lt;/b&gt;" style="text;html=1;align=center;verticalAlign=middle;resizable=0;points=[];autosize=1;strokeColor=none;fillColor=none;" parent="4velJJgH7xcaTWiOWq5z-102" vertex="1">
          <mxGeometry x="95" y="20" width="390" height="40" as="geometry" />
        </mxCell>
        <mxCell id="4velJJgH7xcaTWiOWq5z-196" value="Sprawdź stan&amp;nbsp;&lt;div&gt;realizacji&lt;/div&gt;" style="ellipse;whiteSpace=wrap;html=1;" parent="4velJJgH7xcaTWiOWq5z-102" vertex="1">
          <mxGeometry x="281" y="390" width="120" height="80" as="geometry" />
        </mxCell>
        <mxCell id="4velJJgH7xcaTWiOWq5z-190" value="" style="endArrow=none;html=1;rounded=0;entryX=0;entryY=0.5;entryDx=0;entryDy=0;exitX=1;exitY=0.3333333333333333;exitDx=0;exitDy=0;exitPerimeter=0;" parent="1" source="4velJJgH7xcaTWiOWq5z-101" target="4velJJgH7xcaTWiOWq5z-103" edge="1">
          <mxGeometry width="50" height="50" relative="1" as="geometry">
            <mxPoint x="300" y="360" as="sourcePoint" />
            <mxPoint x="350" y="310" as="targetPoint" />
          </mxGeometry>
        </mxCell>
        <mxCell id="4velJJgH7xcaTWiOWq5z-191" value="" style="endArrow=none;html=1;rounded=0;entryX=0;entryY=0.5;entryDx=0;entryDy=0;exitX=1;exitY=0.3333333333333333;exitDx=0;exitDy=0;exitPerimeter=0;" parent="1" source="4velJJgH7xcaTWiOWq5z-101" target="4velJJgH7xcaTWiOWq5z-106" edge="1">
          <mxGeometry width="50" height="50" relative="1" as="geometry">
            <mxPoint x="130" y="330" as="sourcePoint" />
            <mxPoint x="350" y="310" as="targetPoint" />
          </mxGeometry>
        </mxCell>
        <mxCell id="4velJJgH7xcaTWiOWq5z-192" value="" style="endArrow=none;html=1;rounded=0;exitX=1;exitY=0.3333333333333333;exitDx=0;exitDy=0;exitPerimeter=0;entryX=0;entryY=0.5;entryDx=0;entryDy=0;" parent="1" source="4velJJgH7xcaTWiOWq5z-101" target="4velJJgH7xcaTWiOWq5z-104" edge="1">
          <mxGeometry width="50" height="50" relative="1" as="geometry">
            <mxPoint x="300" y="360" as="sourcePoint" />
            <mxPoint x="350" y="310" as="targetPoint" />
          </mxGeometry>
        </mxCell>
        <mxCell id="4velJJgH7xcaTWiOWq5z-193" value="" style="endArrow=none;html=1;rounded=0;exitX=1;exitY=0.3333333333333333;exitDx=0;exitDy=0;exitPerimeter=0;entryX=0;entryY=0.5;entryDx=0;entryDy=0;" parent="1" source="4velJJgH7xcaTWiOWq5z-101" target="4velJJgH7xcaTWiOWq5z-145" edge="1">
          <mxGeometry width="50" height="50" relative="1" as="geometry">
            <mxPoint x="100" y="300" as="sourcePoint" />
            <mxPoint x="110" y="610" as="targetPoint" />
          </mxGeometry>
        </mxCell>
      </root>
    </mxGraphModel>
  </diagram>
</mxfile>
